<svg xmlns="http://www.w3.org/2000/svg" viewBox="0 0 64 64" width="64" height="64">
  <!-- Щит. Заменяешь на свою картинку? Положи файл с тем же именем. -->
  <ellipse cx="32" cy="56" rx="15" ry="4" fill="#000000" opacity="0.13"/>
  <!-- тень-подложка (объём) -->
  <path d="M32 12 L50 19 L50 33 C50 45 42 51 32 55 C22 51 14 45 14 33 L14 19 Z"
        fill="#4FA8E0" transform="translate(0,2)"/>
  <!-- тело щита -->
  <path d="M32 12 L50 19 L50 33 C50 45 42 51 32 55 C22 51 14 45 14 33 L14 19 Z"
        fill="#7EC8F2" stroke="#4FA8E0" stroke-width="2"/>
  <path d="M32 18 L44 22.5 L44 33 C44 41.5 38.5 46 32 49 C25.5 46 20 41.5 20 33 L20 22.5 Z"
        fill="#B8E2FA"/>
  <!-- сердечко-лапка в центре, как на монете — узнаваемый "добрый" символ игры -->
  <path d="M32 30 Q29.5 26.5 26.8 28.6 Q24.4 30.5 27 33.6 L32 38.6 L37 33.6 Q39.6 30.5 37.2 28.6 Q34.5 26.5 32 30 Z"
        fill="#FFFFFF" opacity="0.9"/>
  <!-- блик -->
  <ellipse cx="22" cy="20" rx="3.5" ry="5" fill="#FFFFFF" opacity="0.55" transform="rotate(-25 22 20)"/>
</svg>
